<svg xmlns="http://www.w3.org/2000/svg" id="a" viewBox="0 0 60 60"><defs><style>.b,.c{fill:#4298b4}.b,.c,.d,.e,.f,.g,.h,.i{stroke-width:0}.b,.d,.f,.g{fill-rule:evenodd}.d,.e{fill:#e4ae3a}.f,.h{fill:#88619a}.g,.i{fill:#33a474}</style></defs><path d="M30.02 11.22c-3.76 0-6.8 3.05-6.8 6.8s3.05 6.8 6.8 6.8a6.8 6.8 0 0 0 0-13.6" class="b"/><path d="M11.23 29.94c0 3.76 3.05 6.8 6.8 6.8s6.8-3.05 6.8-6.8a6.8 6.8 0 0 0-13.6 0" class="f"/><path d="M48.77 29.94c0 3.76-3.05 6.8-6.8 6.8s-6.8-3.05-6.8-6.8 3.05-6.8 6.8-6.8 6.8 3.05 6.8 6.8" class="d"/><path d="M30.02 48.77c-3.76 0-6.8-3.05-6.8-6.8s3.05-6.8 6.8-6.8a6.8 6.8 0 0 1 0 13.6" class="g"/><path d="M15.57 6.04c-1.51 0-2.73 1.22-2.73 2.73s1.22 2.73 2.73 2.73 2.73-1.22 2.73-2.73-1.22-2.73-2.73-2.73m9.13-3.95c-1.51 0-2.73 1.22-2.73 2.73s1.22 2.73 2.73 2.73 2.73-1.22 2.73-2.73-1.22-2.73-2.73-2.73m10.61 0c-1.51 0-2.73 1.22-2.73 2.73s1.22 2.73 2.73 2.73 2.73-1.22 2.73-2.73-1.22-2.73-2.73-2.73m9.12 3.95c-1.51 0-2.73 1.22-2.73 2.73s1.22 2.73 2.73 2.73 2.73-1.22 2.73-2.73-1.22-2.73-2.73-2.73" class="c"/><path d="M15.57 48.5c-1.51 0-2.73 1.22-2.73 2.73s1.22 2.73 2.73 2.73 2.73-1.22 2.73-2.73-1.22-2.73-2.73-2.73m9.13 3.95c-1.51 0-2.73 1.22-2.73 2.73s1.22 2.73 2.73 2.73 2.73-1.23 2.73-2.73-1.22-2.73-2.73-2.73m10.61 0c-1.51 0-2.73 1.22-2.73 2.73s1.22 2.73 2.73 2.73 2.73-1.23 2.73-2.73-1.22-2.73-2.73-2.73m9.12-3.95c-1.51 0-2.73 1.22-2.73 2.73s1.22 2.73 2.73 2.73 2.73-1.22 2.73-2.73-1.22-2.73-2.73-2.73" class="i"/><path d="M8.77 41.7c-1.51 0-2.73 1.22-2.73 2.73s1.22 2.73 2.73 2.73 2.73-1.23 2.73-2.73c0-1.51-1.23-2.73-2.73-2.73m-1.22-6.4c0-1.5-1.22-2.73-2.73-2.73S2.09 33.8 2.09 35.3s1.22 2.73 2.73 2.73c1.5 0 2.73-1.23 2.73-2.73m-2.73-7.88c1.51 0 2.73-1.22 2.73-2.73s-1.22-2.73-2.73-2.73-2.73 1.22-2.73 2.73 1.22 2.73 2.73 2.73m3.95-14.58c-1.51 0-2.73 1.22-2.73 2.73s1.22 2.73 2.73 2.73 2.73-1.23 2.73-2.73c0-1.51-1.23-2.73-2.73-2.73" class="h"/><path d="M51.23 41.7c-1.51 0-2.73 1.22-2.73 2.73s1.22 2.73 2.73 2.73 2.73-1.23 2.73-2.73-1.22-2.73-2.73-2.73m3.95-9.13c-1.51 0-2.73 1.22-2.73 2.73s1.22 2.73 2.73 2.73 2.73-1.22 2.73-2.73-1.22-2.73-2.73-2.73m-2.73-7.88c0 1.51 1.22 2.73 2.73 2.73s2.73-1.22 2.73-2.73-1.22-2.73-2.73-2.73c-1.5 0-2.73 1.22-2.73 2.73m-1.22-6.39c1.51 0 2.73-1.22 2.73-2.73s-1.22-2.73-2.73-2.73-2.73 1.23-2.73 2.73 1.23 2.73 2.73 2.73" class="e"/></svg>